<svg xmlns="http://www.w3.org/2000/svg" xmlns:xlink="http://www.w3.org/1999/xlink" width="55.868" height="61.541" viewBox="0 0 55.868 61.541"><defs><filter id="Trazado_967" x="0" y="0" width="55.868" height="55.201" filterUnits="userSpaceOnUse"><feOffset input="SourceAlpha"></feOffset> <feGaussianBlur stdDeviation="2.5" result="blur"></feGaussianBlur> <feFlood flood-color="#fff" flood-opacity="0.816"></feFlood> <feComposite operator="in" in2="blur"></feComposite> <feComposite in="SourceGraphic"></feComposite></filter> <filter id="Rectángulo_255" x="17.139" y="43.835" width="21.591" height="13.372" filterUnits="userSpaceOnUse"><feOffset input="SourceAlpha"></feOffset> <feGaussianBlur stdDeviation="1.5" result="blur-2"></feGaussianBlur> <feFlood flood-color="#ffba02" flood-opacity="0.616"></feFlood> <feComposite operator="in" in2="blur-2"></feComposite> <feComposite in="SourceGraphic"></feComposite></filter> <filter id="Rectángulo_256" x="18.805" y="48.169" width="18.258" height="13.372" filterUnits="userSpaceOnUse"><feOffset input="SourceAlpha"></feOffset> <feGaussianBlur stdDeviation="1.5" result="blur-3"></feGaussianBlur> <feFlood flood-color="#ffba02" flood-opacity="0.616"></feFlood> <feComposite operator="in" in2="blur-3"></feComposite> <feComposite in="SourceGraphic"></feComposite></filter> <filter id="Trazado_968" x="17.51" y="17.731" width="20.848" height="27.252" filterUnits="userSpaceOnUse"><feOffset input="SourceAlpha"></feOffset> <feGaussianBlur stdDeviation="1.5" result="blur-4"></feGaussianBlur> <feFlood flood-color="#ffba02" flood-opacity="0.616"></feFlood> <feComposite operator="in" in2="blur-4"></feComposite> <feComposite in="SourceGraphic"></feComposite></filter></defs> <g id="logo-icdc" transform="translate(8.25 8.291)"><g id="Grupo_859" data-name="Grupo 859"><g id="Grupo_821" data-name="Grupo 821" transform="translate(0 0)"><g transform="matrix(1, 0, 0, 1, -8.25, -8.29)" filter="url(#Trazado_967)"><path id="Trazado_967-2" data-name="Trazado 967" d="M212.058,355.144l-15.444-8.366a4.24,4.24,0,0,0-4.039,0l-15.444,8.366a4.24,4.24,0,0,0-2.22,3.728v16.275a4.24,4.24,0,0,0,2.22,3.728l10.931,5.921a.89.89,0,0,0,1.3-.93,17.516,17.516,0,0,0-4.13-8.473,12.482,12.482,0,1,1,18.8-.094,18.262,18.262,0,0,0-4.192,8.551.89.89,0,0,0,1.3.936l10.912-5.911a4.24,4.24,0,0,0,2.22-3.728V358.872A4.24,4.24,0,0,0,212.058,355.144Z" transform="translate(-166.66 -337.97)" fill="none" stroke="#fff" stroke-width="1.5"></path></g></g> <g transform="matrix(1, 0, 0, 1, -8.25, -8.29)" filter="url(#Rectángulo_255)"><rect id="Rectángulo_255-2" data-name="Rectángulo 255" width="11.091" height="2.872" rx="1.436" transform="translate(22.39 49.08)" fill="none" stroke="#fdba34" stroke-width="1.5"></rect></g> <g transform="matrix(1, 0, 0, 1, -8.25, -8.29)" filter="url(#Rectángulo_256)"><rect id="Rectángulo_256-2" data-name="Rectángulo 256" width="7.758" height="2.872" rx="1.436" transform="translate(24.05 53.42)" fill="none" stroke="#fdba34" stroke-width="1.5"></rect></g> <g transform="matrix(1, 0, 0, 1, -8.25, -8.29)" filter="url(#Trazado_968)"><path id="Trazado_968-2" data-name="Trazado 968" d="M215.931,399.85v-6.33a.219.219,0,0,0-.22-.219l-2.86,0h-2.626a.219.219,0,0,1-.2-.317l5.228-10.53.254-.513a.221.221,0,0,1,.419.1v6.409a.219.219,0,0,0,.219.22h5.484a.219.219,0,0,1,.2.318l-.373.744-5.108,10.218A.221.221,0,0,1,215.931,399.85Z" transform="translate(-188 -359.59)" fill="#ffba02"></path></g></g></g></svg>