<?xml version="1.0" standalone="no"?>
<!DOCTYPE svg PUBLIC "-//W3C//DTD SVG 20010904//EN"
 "http://www.w3.org/TR/2001/REC-SVG-20010904/DTD/svg10.dtd">
<svg version="1.0" xmlns="http://www.w3.org/2000/svg"
 width="5000.000000pt" height="5000.000000pt" viewBox="0 0 5000.000000 5000.000000"
 preserveAspectRatio="xMidYMid meet">

<g transform="translate(0.000000,5000.000000) scale(0.100000,-0.100000)"
fill="#000000" stroke="none">
<path d="M17630 46523 c-24 -3 -49 -8 -55 -13 -13 -10 -95 -26 -205 -40 -47
-6 -105 -17 -130 -25 -25 -8 -77 -18 -116 -24 -40 -5 -99 -22 -135 -39 -107
-50 -133 -60 -169 -66 -69 -13 -120 -29 -120 -37 0 -14 -131 -76 -176 -83 -25
-5 -51 -18 -65 -32 -12 -13 -27 -24 -34 -24 -30 0 -236 -120 -265 -155 -7 -8
-18 -15 -24 -15 -14 0 -226 -159 -261 -196 -5 -5 -30 -23 -54 -39 -49 -33
-318 -303 -381 -382 -22 -28 -44 -53 -49 -55 -14 -5 -126 -148 -156 -199 -11
-20 -69 -113 -103 -168 -23 -37 -37 -62 -122 -216 -67 -119 -91 -171 -140
-290 -22 -55 -45 -109 -50 -120 -5 -11 -18 -54 -30 -95 -11 -41 -26 -91 -32
-109 -28 -89 -65 -253 -79 -356 -6 -38 -17 -110 -25 -160 -12 -74 -16 -352
-24 -1580 -5 -853 -5 -1617 0 -1787 5 -172 5 -312 -1 -335 -5 -21 -9 -59 -9
-85 0 -44 -2 -48 -25 -48 -14 0 -33 -9 -42 -20 -10 -11 -30 -20 -45 -20 -44 0
-54 -52 -39 -203 14 -142 13 -956 -2 -1164 -13 -185 -1 -233 61 -233 14 0 40
-10 58 -22 52 -36 56 -100 51 -763 -6 -627 -8 -675 -39 -675 -28 0 -58 -18
-58 -35 0 -8 -14 -17 -35 -21 -30 -5 -36 -11 -42 -43 -11 -51 -9 -194 7 -429
10 -159 12 -414 7 -1185 -4 -560 -11 -1010 -17 -1047 -13 -85 -13 -375 0 -420
16 -54 25 -64 68 -66 62 -3 89 -29 99 -94 11 -74 10 -661 -1 -727 -8 -48 -11
-52 -43 -58 -19 -3 -37 -13 -40 -21 -3 -7 -11 -14 -19 -14 -8 0 -14 -7 -14
-15 0 -8 -9 -15 -19 -15 -19 0 -22 -6 -36 -90 -4 -19 0 -154 8 -300 18 -323
22 -1662 6 -2055 -20 -498 -22 -615 -9 -661 13 -44 17 -48 81 -58 59 -10 76
-40 86 -152 6 -61 8 -743 6 -1764 -7 -2420 -4 -19640 3 -20260 4 -385 9 -541
19 -585 7 -33 16 -89 19 -125 5 -66 22 -146 58 -280 11 -41 28 -106 38 -145
49 -191 147 -419 288 -673 29 -50 52 -94 52 -97 0 -6 34 -56 60 -87 8 -10 24
-34 35 -52 63 -105 150 -223 216 -293 24 -26 79 -90 122 -142 43 -52 92 -103
108 -113 16 -10 29 -22 29 -28 0 -5 13 -16 30 -25 16 -8 64 -49 106 -90 41
-41 79 -75 83 -75 4 0 16 -8 27 -18 10 -9 37 -30 58 -47 22 -16 61 -47 88 -68
27 -20 52 -37 57 -37 4 0 25 -13 46 -30 21 -16 43 -30 50 -30 7 0 19 -7 26
-16 7 -9 36 -27 64 -40 27 -14 73 -38 100 -53 83 -48 217 -111 235 -111 10 0
28 -9 42 -19 14 -11 47 -25 74 -32 27 -6 56 -18 64 -25 9 -7 43 -20 75 -28 33
-7 77 -21 98 -30 21 -9 71 -23 110 -30 40 -8 91 -21 115 -30 24 -9 85 -21 137
-26 51 -5 104 -14 117 -19 82 -35 48 -35 7503 -39 5340 -2 7353 0 7468 8 87 6
183 18 214 26 30 8 97 19 148 24 95 10 109 13 160 35 17 8 55 17 85 20 30 4
73 15 95 25 40 18 128 48 220 76 28 9 122 51 210 94 88 43 171 81 184 85 12 4
39 18 58 31 20 13 41 24 48 24 7 0 29 14 50 30 21 17 42 30 47 30 11 0 77 48
98 71 8 9 40 33 70 53 30 19 66 44 79 53 13 10 34 25 46 33 106 71 164 125
386 359 149 156 392 486 472 642 24 46 53 101 65 121 11 20 42 85 67 145 26
59 53 122 61 140 8 17 14 34 14 39 0 4 11 36 25 71 14 35 37 102 50 151 14 48
31 110 39 137 8 28 20 73 26 100 6 28 18 79 26 115 8 36 19 103 25 150 5 47
15 103 22 125 9 30 13 2889 17 11915 l5 11875 25 3 c14 2 31 9 38 14 7 6 27
18 45 27 51 25 49 -93 28 1741 -7 569 -10 1474 -8 2010 5 1081 4 1105 -50
1163 -50 53 -76 118 -68 172 5 30 4 45 -4 45 -8 0 -11 1040 -12 3893 0 2380
-4 3921 -10 3967 -5 41 -15 116 -23 165 -8 50 -21 135 -30 190 -8 55 -25 136
-36 180 -12 44 -26 98 -32 120 -5 22 -20 72 -34 110 -14 39 -36 102 -49 140
-41 123 -60 164 -171 388 -82 164 -118 225 -228 377 -30 41 -55 81 -55 88 -1
6 -5 12 -10 12 -4 0 -27 27 -50 60 -23 33 -47 63 -54 67 -7 5 -30 28 -51 53
-144 165 -389 401 -453 433 -16 9 -47 32 -69 52 -21 19 -55 44 -75 55 -19 10
-41 26 -48 34 -8 9 -32 25 -55 36 -22 11 -61 35 -86 55 -25 19 -58 42 -75 51
-16 9 -33 22 -37 29 -4 7 -23 16 -43 19 -19 4 -47 18 -63 31 -16 13 -42 27
-58 31 -16 4 -49 17 -74 29 -25 12 -59 26 -77 29 -17 4 -37 14 -43 22 -7 7
-31 19 -54 25 -22 5 -53 19 -69 30 -15 11 -52 24 -83 30 -30 6 -75 19 -100 29
-24 11 -68 22 -97 25 -28 4 -77 15 -107 25 -31 11 -109 24 -179 29 -100 8
-130 15 -160 33 l-36 23 -7455 1 c-4100 0 -7475 -1 -7500 -3z m14920 -101
c272 -39 449 -78 655 -147 699 -230 1290 -677 1695 -1280 291 -435 448 -850
537 -1420 16 -104 18 -1185 21 -18420 2 -13396 0 -18349 -8 -18455 -101 -1306
-975 -2429 -2218 -2849 -238 -80 -520 -139 -777 -161 -172 -14 -14557 -14
-14732 1 -1244 104 -2321 909 -2778 2074 -92 234 -163 516 -202 800 -17 124
-18 948 -18 18495 0 17567 1 18371 18 18495 74 539 237 982 522 1415 548 831
1463 1375 2455 1459 59 4 3279 8 7425 7 5681 -2 7339 -5 7405 -14z"/>
<path d="M17830 46333 c-505 -47 -816 -131 -1215 -328 -322 -158 -594 -353
-850 -610 -508 -508 -814 -1127 -922 -1870 -16 -114 -18 -1050 -21 -18365 -2
-12888 0 -18288 8 -18390 31 -428 127 -788 309 -1165 279 -577 702 -1042 1244
-1367 377 -227 760 -361 1239 -435 107 -16 528 -18 7373 -21 5272 -2 7299 0
7404 8 633 49 1214 276 1731 676 148 114 430 396 544 544 400 517 627 1098
676 1731 8 105 10 5072 8 18414 -3 17205 -5 18276 -21 18380 -76 488 -207 863
-435 1242 -536 893 -1462 1467 -2505 1552 -88 8 -2364 11 -7330 9 -3961 0
-7218 -3 -7237 -5z m14670 -826 c361 -63 674 -185 961 -375 601 -400 978
-1013 1071 -1742 11 -87 13 -3224 13 -18335 0 -17613 -1 -18235 -18 -18365
-149 -1095 -1009 -1950 -2097 -2085 -111 -13 -897 -15 -7342 -15 -7754 0
-7286 -3 -7528 46 -542 110 -1048 422 -1405 870 -271 338 -457 790 -504 1226
-15 137 -15 36519 0 36656 110 1015 871 1863 1872 2086 256 58 -266 54 7607
52 6971 -1 7269 -2 7370 -19z"/>
<path d="M23220 44890 c-266 -40 -497 -254 -555 -515 -25 -113 -17 -284 18
-383 37 -106 82 -176 167 -262 57 -58 95 -85 160 -118 169 -84 -7 -76 1925
-80 1166 -2 1750 0 1812 8 167 19 292 79 408 196 132 132 186 258 193 449 5
147 -11 224 -70 345 -59 119 -169 230 -288 289 -168 83 18 75 -1955 77 -968 1
-1785 -2 -1815 -6z m3360 -755 c0 -8 -4 -15 -9 -15 -13 0 -22 16 -14 24 11 11
23 6 23 -9z"/>
</g>
</svg>
